<svg xmlns="http://www.w3.org/2000/svg" viewBox="0 0 470 470" width="470" height="470">
	<defs>
		<filter id="flt1"> <feColorMatrix in="SourceGraphic" type="matrix" values="0 0 0 0 0.286   0 0 0 0 0.314   0 0 0 0 0.345   0 0 0 1 0" /> </filter>
		<filter id="flt2"> <feColorMatrix in="SourceGraphic" type="matrix" values="0 0 0 0 0.286   0 0 0 0 0.314   0 0 0 0 0.345   0 0 0 1 0" /> </filter>
	</defs>
	<style>
		tspan { white-space:pre }
		.shp0 { filter: url(#flt1);fill: #495058 } 
		.shp1 { filter: url(#flt2);fill: #495058 } 
	</style>
	<g id="Layer">
		<g id="Layer">
			<g id="Layer">
				<path id="Layer" class="shp0" d="M234.67,170.67c-35.31,0 -64,28.69 -64,64c0,35.31 28.69,64 64,64c35.31,0 64,-28.69 64,-64c0,-35.31 -28.69,-64 -64,-64z" />
				<path id="Layer" class="shp1" d="M469.33,234.67c-36.91,93.65 -127.89,160 -234.67,160c-106.67,0 -197.76,-66.35 -234.67,-160c36.91,-93.65 128,-160 234.67,-160c106.77,0 197.76,66.35 234.67,160zM341.33,234.67c0,-58.88 -47.79,-106.67 -106.67,-106.67c-58.88,0 -106.67,47.79 -106.67,106.67c0,58.88 47.79,106.67 106.67,106.67c58.88,0 106.67,-47.79 106.67,-106.67z" />
			</g>
		</g>
	</g>
	<g id="Layer">
	</g>
	<g id="Layer">
	</g>
	<g id="Layer">
	</g>
	<g id="Layer">
	</g>
	<g id="Layer">
	</g>
	<g id="Layer">
	</g>
	<g id="Layer">
	</g>
	<g id="Layer">
	</g>
	<g id="Layer">
	</g>
	<g id="Layer">
	</g>
	<g id="Layer">
	</g>
	<g id="Layer">
	</g>
	<g id="Layer">
	</g>
	<g id="Layer">
	</g>
	<g id="Layer">
	</g>
</svg>